<svg fill="none" height="24" viewBox="0 0 24 24" width="24" xmlns="http://www.w3.org/2000/svg"><g stroke="#000" stroke-linecap="round" stroke-linejoin="round" stroke-miterlimit="10" stroke-width="1.5"><path d="m7 3c-1.66 0-3 1.34-3 3v.84c0 .77-.12 1.53001-.37 2.26001-.38 1.12999-1.44 1.89999-2.63 1.89999v2c1.19 0 2.25.76 2.63 1.9.24.73.37 1.5.37 2.26v.84c0 1.66 1.34 3 3 3h10c1.66 0 3-1.34 3-3v-.84c0-.77.12-1.53.37-2.26.38-1.13 1.44-1.9 2.63-1.9v-2c-1.19 0-2.25-.76-2.63-1.89999-.24-.73-.37-1.50001-.37-2.26001v-.84c0-1.66-1.34-3-3-3h-4.75"/><path d="m9.75 12.0001h2.92c1.15 0 2.08.93 2.08 2.08s-.93 2.08-2.08 2.08h-2.92v-8.33002h2.92c1.15 0 2.08.93002 2.08 2.08002s-.93 2.08-2.08 2.08h-2.92"/></g></svg>